<svg viewBox="0 0 96 32" fill="none" xmlns="http://www.w3.org/2000/svg">
  <path fill-rule="evenodd" clip-rule="evenodd" d="M81.75 13.974a7.124 7.124 0 0 0-4.672-1.733c-1.726 0-3.391.617-4.674 1.733a6.053 6.053 0 0 0-1.456 2.112 5.88 5.88 0 0 0-.434 2.503c-.037.86.113 1.719.44 2.52a6.157 6.157 0 0 0 1.458 2.131 6.55 6.55 0 0 0 2.164 1.337 6.723 6.723 0 0 0 2.531.425 6.517 6.517 0 0 0 2.56-.432 6.337 6.337 0 0 0 2.164-1.392 6.086 6.086 0 0 0 1.401-2.115 5.92 5.92 0 0 0 .402-2.48 5.9 5.9 0 0 0-.434-2.498 6.073 6.073 0 0 0-1.45-2.111Zm-2.797 6.962c-.23.255-.513.46-.832.599a2.616 2.616 0 0 1-2.044-.003 2.54 2.54 0 0 1-.853-.596 3.162 3.162 0 0 1-.797-2.325 3.165 3.165 0 0 1 .738-2.312c.235-.251.522-.451.843-.588.32-.136.668-.206 1.018-.203.351-.002.699.068 1.02.204.323.136.611.337.848.587.585.633.888 1.464.841 2.312a3.251 3.251 0 0 1-.782 2.325Z" fill="#3C229D"/>
  <path d="M68.056 12.597h-3.692v12.127h3.692V12.597ZM60.673 8.317H56.98v16.407h3.692V8.317ZM53.29 12.597H49.6v12.127h3.691V12.597Z" fill="#3C229D"/>
  <path fill-rule="evenodd" clip-rule="evenodd" d="M34.921 18.547a6.105 6.105 0 0 1 .384-2.466 6.265 6.265 0 0 1 1.344-2.128 5.991 5.991 0 0 1 2.03-1.306 6.16 6.16 0 0 1 2.4-.414 6.508 6.508 0 0 1 3.853 1.12 5.312 5.312 0 0 1 2.097 3.196h-4.083a1.76 1.76 0 0 0-.692-.822 1.856 1.856 0 0 0-1.057-.284 2.091 2.091 0 0 0-1.022.197c-.317.15-.589.377-.787.66a3.87 3.87 0 0 0-.59 2.247 3.863 3.863 0 0 0 .59 2.24c.186.275.443.499.746.649.303.15.641.221.981.206.39.044.784-.041 1.117-.242.333-.201.585-.505.714-.863h4.12a5.459 5.459 0 0 1-2.119 3.16 6.274 6.274 0 0 1-3.832 1.177 6.134 6.134 0 0 1-2.401-.415 5.968 5.968 0 0 1-2.028-1.311 6.324 6.324 0 0 1-1.36-2.13 6.161 6.161 0 0 1-.405-2.471ZM28.926 12.597v1.591a3.984 3.984 0 0 0-1.53-1.307 4.142 4.142 0 0 0-1.999-.412 5.161 5.161 0 0 0-2.152.45 4.996 4.996 0 0 0-1.746 1.298 6.387 6.387 0 0 0-1.565 4.465 6.334 6.334 0 0 0 1.595 4.458 4.934 4.934 0 0 0 1.72 1.29 5.098 5.098 0 0 0 2.126.451 4.258 4.258 0 0 0 2.052-.499 4.084 4.084 0 0 0 1.529-1.413v1.755h3.691V12.597h-3.72ZM28.188 21c-.246.251-.543.451-.871.587a2.715 2.715 0 0 1-2.082 0 2.639 2.639 0 0 1-.871-.587 3.028 3.028 0 0 1-.66-1.05 2.95 2.95 0 0 1-.175-1.218 2.979 2.979 0 0 1 .178-1.216c.144-.39.367-.748.657-1.052.246-.248.542-.444.87-.576.327-.133.68-.199 1.034-.195.358 0 .712.071 1.04.207.329.136.626.335.873.585.291.304.515.661.659 1.051.143.39.203.804.175 1.217.021.41-.041.819-.185 1.205-.143.385-.364.74-.65 1.043h.008ZM18.59 12.597v2.854h-1.477v9.273h-3.691v-9.273h-1.477v-2.854h1.477v-.47c0-1.584.416-2.74 1.248-3.467.834-.714 2.14-1.099 3.92-1.099V10.7a1.72 1.72 0 0 0-1.137.307 1.381 1.381 0 0 0-.34 1.07v.556l1.477-.036Z" fill="#3C229D"/>
  <path d="M53.29 6.89H49.6v3.567h3.691V6.891Z" fill="#EE3A84"/>
  <path d="M68.056 6.89h-3.692v3.567h3.692V6.891Z" fill="#39B3C2"/>
</svg>