<svg xmlns="http://www.w3.org/2000/svg" width="1220" height="320" fill="none" viewBox="0 0 1220 320">
  <g class="Banner">
    <g class="Group 3011" clip-path="url(#a)">
      <path fill="#F0F6FF" d="M1220 0H0v319.988h1220V0Z" class="Vector"/>
      <path fill="#CCE2FF" d="M1203 222.151c10.3 16.239 16.2 35.128 16.2 55.282v42.555h.8v-98.976c-5.77 0-11.45.396-17 1.145v-.006Z" class="Vector"/>
      <g class="Group">
        <path fill="#A2C8FE" d="M1083.66 195.59a97.98 97.98 0 0 1 6.3-.821v-26.838c-2.12.156-4.22.371-6.3.629v27.03Zm-103.3 124.398h28.25v-11.234c-9.953-.179-19.474-1.99-28.25-5.167v16.401Zm.033-44.857c8.169 4.874 17.833 7.793 28.217 8.075v-5.036c0-35.062 23.38-65.1 56.58-77.635v-28.294c-48.33 13.434-83.713 54.28-84.797 102.89Zm86.757-75.309a93.451 93.451 0 0 1 6.3-1.984v-27.599c-2.12.437-4.22.923-6.3 1.468v28.115Zm8.26-2.506c2.07-.527 4.16-.989 6.29-1.384v-27.126c-2.12.294-4.21.641-6.29 1.037v27.473Zm-95.05 95.109c8.626 3.657 18.179 5.779 28.25 5.989v-5.797c-10.168-.228-19.754-2.602-28.25-6.642v6.45Z" class="Vector"/>
        <path fill="#A2C8FE" d="M980.36 277.439v6.504c8.45 4.178 18.049 6.642 28.25 6.876v-5.791c-10.345-.264-19.996-3.069-28.25-7.763v.174Zm0 24.206c8.75 3.255 18.277 5.125 28.25 5.311v-6.738c-10.044-.198-19.591-2.254-28.25-5.809v7.236ZM1203 222.151c-20.7-32.652-59.17-54.598-103.21-54.598h-.02c-2.64 0-5.25.09-7.85.24v26.795c2.59-.203 5.21-.311 7.87-.311 30.7 0 57.86 13.967 74.38 35.373 10.58 13.698 16.79 30.441 16.79 48.52v41.818h28.24v-42.555c0-20.154-5.9-39.043-16.2-55.282Z" class="Vector"/>
      </g>
      <path fill="#CCE2FF" d="M537.395 217.08v102.908h64.384V200.979c-23.436.155-45.415 5.994-64.384 16.101Z" class="Vector"/>
      <g class="Group">
        <path fill="#CCE2FF" d="M311.508 166.312a50.7 50.7 0 0 1 2.337 15.238v138.438h4.708V180.783c0-4.724-.607-9.321-1.743-13.727a76.407 76.407 0 0 0-5.302-.744Z" class="Vector"/>
        <path fill="#CCE2FF" d="M304.351 165.899a45.03 45.03 0 0 1 2.814 15.645v138.444h4.721V181.55c0-5.371-.868-10.55-2.488-15.43a78.54 78.54 0 0 0-5.047-.221Zm14.568 1.558a56.579 56.579 0 0 1 1.593 13.326v139.205h53.885v-88.773c0-31.178-23.73-57.248-55.478-63.764v.006Zm-46.995 5.185c-23.43 10.677-39.539 32.892-39.539 58.579v88.773h66.154V181.55a37.721 37.721 0 0 0-3.219-15.238 75.11 75.11 0 0 0-23.403 6.336l.007-.006Z" class="Vector"/>
        <path fill="#CCE2FF" d="M297.351 166.12a39.449 39.449 0 0 1 3.147 15.424v138.444h4.702V181.544a43.478 43.478 0 0 0-2.919-15.645 74.913 74.913 0 0 0-4.93.227v-.006Z" class="Vector"/>
      </g>
      <path fill="#A2C8FE" d="M735.073 185.926c34.327 0 62.967 22.42 69.575 52.213 24.2 10.412 40.962 33.006 40.962 59.208v-48.13c0-56.175-49.49-101.716-110.544-101.716-56.052 0-102.355 38.389-109.558 88.156v84.331h38.559v-68.727c0-36.081 31.787-65.335 71.006-65.335Z" class="Vector"/>
      <path fill="#CCE2FF" d="M774.605 232.018c10.735 0 20.915 2.2 30.044 6.121-6.602-29.793-35.242-52.213-69.576-52.213-39.218 0-71.005 29.254-71.005 65.335v68.727h39.531v-22.635c0-36.081 31.794-65.335 71.006-65.335Z" class="Vector"/>
      <path fill="#6CA8FC" d="M768.153 122.456c-1.064 0-2.122-.024-3.174-.066 11.251 22.42 35.895 37.976 64.496 37.976 39.212 0 71.006-29.254 71.006-65.335V0h-61.322v57.122c0 36.081-31.794 65.334-71.006 65.334Zm36.495 115.689c-9.122-3.927-19.302-6.121-30.044-6.121-39.211 0-71.005 29.254-71.005 65.335v22.635H845.61v-22.635c0-26.202-16.769-48.802-40.962-59.208v-.006Z" class="Vector"/>
      <path fill="#CCE2FF" d="M159.766 0v41.182c0 36.081 31.794 65.335 71.006 65.335 5.661 0 11.172-.612 16.455-1.769 23.599-5.155 42.64-21.142 50.567-41.943a60.536 60.536 0 0 0 3.99-21.623V0H159.766Z" class="Vector"/>
      <g class="Group">
        <path fill="#CCE2FF" d="M1089.96 125.154v-3.285c-.69.084-1.39.162-2.09.234a55.963 55.963 0 0 0 2.09 3.051ZM1151.42 0v57.122c0 32.478-25.76 59.418-59.5 64.477v6.108c12.93 16.066 33.68 26.484 57.09 26.484 38.86 0 70.43-28.737 70.99-64.381V0h-68.58Z" class="Vector"/>
      </g>
      <path fill="#6CA8FC" d="M597.11 145.146c-8.548-7.595-19.439-12.973-31.572-15.137 9.018 7.062 19.766 12.313 31.572 15.137Zm-42.457-25.501c23.677.336 44.579 11.186 57.437 27.707 1.711.101 3.441.155 5.178.155h.006c44.116 0 79.88-32.904 79.88-73.499V57.596c0-.155-.006-.317-.006-.473V0h-29.045v72.342c0 25.83-22.757 46.775-50.835 46.775s-50.835-20.939-50.835-46.775V0h-29.045v74.008c0 17.24 6.458 33.096 17.265 45.637Z" class="Vector"/>
      <path fill="#6CA8FC" d="M556.298 121.485a77.816 77.816 0 0 0 6.491 6.265c14.862 1.96 28.091 8.566 37.899 18.163 2.886.564 5.825.977 8.815 1.241-12.256-14.986-31.46-24.89-53.205-25.675v.006Z" class="Vector"/>
      <path fill="#CCE2FF" d="M617.267 119.117c28.078 0 50.835-20.939 50.835-46.775V0h-101.67v72.342c0 25.83 22.757 46.775 50.835 46.775Z" class="Vector"/>
      <path fill="#A2C8FE" d="M764.98 122.39c-4.179-8.32-6.51-17.588-6.51-27.359V0h-61.316v57.601c.268 34.889 30.253 63.273 67.826 64.789Z" class="Vector"/>
      <path fill="#A2C8FE" d="M764.979 122.39c1.051.042 2.109.066 3.174.066 39.211 0 71.005-29.247 71.005-65.334V0h-80.689v95.031c0 9.771 2.331 19.039 6.51 27.359Zm-67.825-64.788V0h-.006v57.123c0 .162 0 .318.006.473v.006ZM0 147.513h.007c30.938 0 59.049 11.126 79.866 29.272v-29.278C35.764 147.507 0 114.597 0 74.008v73.505Z" class="Vector"/>
      <path fill="#CCE2FF" d="M933.992 260.624c-5.485 12.055-18.421 20.52-33.512 20.52v38.845h79.88v-16.401c-21.254-7.691-38.154-23.343-46.368-42.97v.006Z" class="Vector"/>
      <g class="Group">
        <path fill="#CCE2FF" d="M936.799 232.672V0h-6.288v228.955c3.964 5.353 6.282 11.815 6.282 18.781 0 3.585-.62 7.038-1.757 10.281 7.608 19.841 24.22 35.775 45.324 43.628v-7.236c-25.669-10.526-43.561-34.21-43.561-61.737Z" class="Vector"/>
        <path fill="#CCE2FF" d="M953.307 232.672V0h-6.288v232.666c0 22.185 13.497 41.464 33.341 51.277v-6.678c-16.233-9.226-27.053-25.747-27.053-44.587v-.006ZM900.48 95.031v119.297c11.31 0 21.412 4.76 28.072 12.217V0H900.48v95.031Z" class="Vector"/>
        <path fill="#CCE2FF" d="M955.266 0v232.672c0 17.791 9.997 33.431 25.094 42.441V0h-25.094Z" class="Vector"/>
        <path fill="#CCE2FF" d="M945.06 232.666V0h-6.301v232.672c0 26.507 17.049 49.347 41.601 59.753v-6.45c-20.967-9.969-35.3-30.099-35.3-53.315v.006Z" class="Vector"/>
      </g>
      <g class="Group">
        <path fill="#A2C8FE" d="M483.497 185.866v134.128h5.309V186.706c0-27.767 20.647-51.092 48.589-57.692v-5.856c-30.9 6.701-53.898 32.232-53.898 62.708Z" class="Vector"/>
        <path fill="#A2C8FE" d="M498.02 186.7v133.288h5.309V186.7c0-20.316 14.254-37.55 34.059-43.736v-5.132c-22.782 6.36-39.368 25.831-39.368 48.868Z" class="Vector"/>
        <path fill="#A2C8FE" d="M490.765 186.7v133.288h5.302V186.7c0-24.044 17.448-44.342 41.328-50.756v-5.071c-26.844 6.552-46.63 29.061-46.63 55.821v.006Z" class="Vector"/>
        <path fill="#A2C8FE" d="M505.288 186.7v133.288h32.1V144.864c-18.701 6.108-32.1 22.527-32.1 41.836Z" class="Vector"/>
        <path fill="#A2C8FE" d="M472.031 0v53.963c20.053 0 36.306 14.956 36.306 33.407 0 18.451-16.253 33.408-36.306 33.408v199.204h9.507V185.854c0-31.477 23.867-57.823 55.857-64.561V0h-65.364Z" class="Vector"/>
      </g>
      <g class="Group">
        <path fill="#CCE2FF" d="M1089.96 233.613v-38.845c-2.13.21-4.23.48-6.3.821v37.083c0 37.316-32.88 67.564-73.43 67.564-.54 0-1.09-.006-1.62-.018v6.738c.54.012 1.08.018 1.62.018 44.03 0 79.73-32.844 79.73-73.361Z" class="Vector"/>
        <path fill="#CCE2FF" d="M1081.7 232.672v-36.735a97.53 97.53 0 0 0-6.29 1.385v35.344c0 33.119-29.18 59.975-65.18 59.975-.54 0-1.08-.006-1.62-.018v5.797c.53.012 1.08.018 1.62.018 39.47 0 71.47-29.439 71.47-65.76v-.006Z" class="Vector"/>
        <path fill="#CCE2FF" d="M1073.45 232.666v-34.822a92.883 92.883 0 0 0-6.3 1.984v32.85c0 28.923-25.48 52.374-56.92 52.374-.54 0-1.09-.006-1.62-.024v5.791c.54.012 1.08.018 1.62.018 34.92 0 63.22-26.047 63.22-58.171Z" class="Vector"/>
        <path fill="#CCE2FF" d="M1065.19 232.672v-32.137c-33.2 12.535-56.58 42.573-56.58 77.635v5.036c.54.012 1.08.036 1.62.036 30.35 0 54.96-22.642 54.96-50.57Z" class="Vector"/>
        <path fill="#CCE2FF" d="M1174.17 229.656c-16.52-21.406-43.68-35.373-74.39-35.373-2.65 0-5.27.108-7.86.311v39.019c0 41.512-36.58 75.159-81.69 75.159-.54 0-1.08-.012-1.62-.018v11.234h182.35V278.17c0-18.079-6.22-34.822-16.79-48.52v.006Zm-31.78 80.945c-15.7 0-28.43-11.708-28.43-26.155 0-.101.01-.197.01-.299.12-9.909 6.23-18.493 15.15-22.833 3.96-1.931 8.47-3.022 13.27-3.022 15.7 0 28.43 11.708 28.43 26.154 0 14.447-12.73 26.155-28.43 26.155Z" class="Vector"/>
      </g>
      <path fill="#6CA8FC" d="M130.721 0v72.342c0 25.83-22.756 46.775-50.835 46.775h-.006c-28.072 0-50.829-20.945-50.829-46.775V0H0v74.008c0 40.589 35.764 73.499 79.88 73.499h.006c44.116 0 79.88-32.904 79.88-73.499V0h-29.045Z" class="Vector"/>
      <path fill="#CCE2FF" d="M29.052 0v72.342c0 25.83 22.756 46.769 50.828 46.775h.007c28.078 0 50.834-20.939 50.834-46.775V0H29.051Zm81.394 221.144c-6.079-17.084-16.703-32.28-30.573-44.359-20.817-18.14-48.928-29.272-79.866-29.272H0v172.475h116.199V254.42a99.18 99.18 0 0 0-5.746-33.282l-.007.006Z" class="Vector"/>
      <path fill="#A2C8FE" d="M203.02 169.879a30.854 30.854 0 0 0-2.201-7.859 29.833 29.833 0 0 0-1.084-2.296 32.4 32.4 0 0 0-3.14-4.855 35.399 35.399 0 0 0-1.32-1.607c-6.653-7.577-16.833-12.433-28.254-12.433-20.053 0-36.313 14.957-36.313 33.408s16.26 33.408 36.313 33.408c7.881 0 15.169-2.32 21.117-6.241a38.75 38.75 0 0 0 1.959-1.373 34.816 34.816 0 0 0 6.667-6.647 32.314 32.314 0 0 0 4.702-8.591 30.925 30.925 0 0 0 1.861-10.55c0-1.481-.118-2.931-.32-4.358l.013-.006Z" class="Vector"/>
      <g class="Group">
        <path fill="#A2C8FE" d="M188.146 243.972c.659.48 1.312.959 1.958 1.451v-45.398c-.633.48-1.292.936-1.958 1.373v42.574Zm7.13-90.709a35.35 35.35 0 0 1 1.319 1.606c8.117-15.274 23.175-26.856 41.399-31.25.249-.683.503-1.361.764-2.032-19.014 4.22-34.83 15.994-43.482 31.676Z" class="Vector"/>
        <path fill="#A2C8FE" d="M199.736 159.719c.392.749.751 1.516 1.084 2.296 6.164-14.279 18.878-25.501 34.726-30.537.183-.695.372-1.385.574-2.074-16.337 4.826-29.599 15.976-36.384 30.315Zm-4.924 89.492c.66.558 1.313 1.121 1.959 1.697v-57.524a32.494 32.494 0 0 1-1.959 2.349v53.478Z" class="Vector"/>
        <path fill="#A2C8FE" d="M203.021 169.879a31.1 31.1 0 0 1 .32 4.358c0 3.687-.66 7.236-1.862 10.551v70.531c.66.66 1.313 1.325 1.959 1.996v-75.77c0-19.189 12.551-35.674 30.508-42.909a118.1 118.1 0 0 1 .411-2.116c-15.469 5.814-27.275 18.181-31.336 33.359Z" class="Vector"/>
        <path fill="#A2C8FE" d="M208.146 181.544v81.022c.667.792 1.32 1.595 1.959 2.398v-83.42c0-15.316 9.201-28.648 22.79-35.589.071-.726.156-1.445.248-2.164-14.843 7.067-24.997 21.316-24.997 37.753Z" class="Vector"/>
      </g>
      <path fill="#A2C8FE" d="M210.105 264.964a109.626 109.626 0 0 0-6.667-7.649c-.647-.671-1.3-1.337-1.959-1.996a116.472 116.472 0 0 0-4.702-4.418 122.73 122.73 0 0 0-1.959-1.696 114.157 114.157 0 0 0-4.708-3.783c-.646-.491-1.299-.971-1.958-1.451-19.786-14.375-44.776-22.959-71.946-22.959h-.007c-1.926 0-3.84.048-5.74.132a98.955 98.955 0 0 1 5.747 33.282v65.568h115.872c-1.633-20.489-9.54-39.366-21.967-55.024l-.006-.006ZM342.929 53.963c-16.083 0-31.356 3.165-45.141 8.842-7.927 20.8-26.962 36.788-50.567 41.943a97.391 97.391 0 0 0-8.463 16.833 129.1 129.1 0 0 0-.764 2.032 98.012 98.012 0 0 0-1.88 5.791 92.96 92.96 0 0 0-2.175 9.232 89.298 89.298 0 0 0-.796 5.155 93.936 93.936 0 0 0-.751 11.887v75.543c0-25.687 16.109-47.902 39.538-58.579v-14.92c0-4.424.483-8.746 1.391-12.924a57.747 57.747 0 0 1 1.652-6.043c.189-.581.392-1.157.594-1.732a63.535 63.535 0 0 1 2.416-5.737 66.615 66.615 0 0 1 3.363-6.114c12.256-19.596 35.248-32.79 61.583-32.79 39.218 0 71.006 29.253 71.006 65.334v162.266h39.538v-164.31c0-56.175-49.49-101.715-110.544-101.715v.006Z" class="Vector"/>
      <g class="Group">
        <path fill="#A2C8FE" d="M318.919 167.457c-4.591-18.925-18.754-34.528-37.573-42.279a48.78 48.78 0 0 0-.954 1.582c18.075 7.392 31.749 22.24 36.417 40.296a54.858 54.858 0 0 1 1.744 13.727v139.205h1.959V180.783c0-4.58-.555-9.04-1.593-13.326Z" class="Vector"/>
        <path fill="#A2C8FE" d="M277.976 131.286c-.261.552-.522 1.103-.77 1.661 15.371 6.132 27.255 18.259 32.185 33.174a49.093 49.093 0 0 1 2.488 15.429v138.438h1.959V181.55a50.7 50.7 0 0 0-2.337-15.238c-4.95-15.753-17.383-28.582-33.525-35.026Z" class="Vector"/>
        <path fill="#A2C8FE" d="M275.567 137.023a53.62 53.62 0 0 0-.594 1.733c12.694 5.191 22.639 15.016 27.314 27.149a43.358 43.358 0 0 1 2.919 15.646v138.443h1.959V181.551c0-5.479-.999-10.737-2.815-15.646-4.779-12.936-15.305-23.421-28.783-28.876v-.006Z" class="Vector"/>
        <path fill="#A2C8FE" d="M273.738 142.994a54.26 54.26 0 0 0-.417 1.804c9.958 4.364 17.852 12.055 22.012 21.514a37.721 37.721 0 0 1 3.219 15.238v138.444h1.959V181.55c0-5.443-1.123-10.64-3.147-15.424-4.336-10.232-12.851-18.535-23.619-23.132h-.007Z" class="Vector"/>
      </g>
      <path fill="#CCE2FF" d="M472.03 53.963c-20.053 0-36.312 14.956-36.312 33.407 0 18.451 16.259 33.408 36.312 33.408 20.054 0 36.306-14.957 36.306-33.408 0-18.45-16.252-33.407-36.306-33.407Zm153.478 181.7v-49.797c0-14.368-4.976-27.664-13.419-38.514a91.186 91.186 0 0 1-2.579-.186c8.815 10.778 14.039 24.176 14.039 38.706V320h.98v-70.771c0-4.598.339-9.124.979-13.56v-.006Zm-71.985-114.232c.934 0 1.855.024 2.775.054a64.936 64.936 0 0 1-1.645-1.846c-.379 0-.751-.012-1.13-.012-5.544 0-10.944.575-16.128 1.672v1.853a76.186 76.186 0 0 1 16.128-1.721Z" class="Vector"/>
      <path fill="#CCE2FF" d="M624.529 249.223v70.771h.979v-84.331a94.903 94.903 0 0 0-.979 13.56ZM609.51 147.16c.856.078 1.718.138 2.579.186-12.857-16.521-33.759-27.371-57.436-27.707.535.623 1.09 1.235 1.645 1.846 21.751.78 40.949 10.683 53.206 25.675h.006Zm-126.013 38.706c0-30.476 22.998-56.007 53.897-62.708v-1.853c-31.99 6.738-55.856 33.084-55.856 64.561v90.32a112.348 112.348 0 0 1 1.959-4.232v-86.088Z" class="Vector"/>
      <path fill="#CCE2FF" d="M481.538 276.186v43.809h1.959v-48.041a112.348 112.348 0 0 0-1.959 4.232Zm119.15-130.267a89.425 89.425 0 0 1-3.578-.773c11.825 10.502 19.178 25.237 19.178 41.554v133.288h1.959V186.7c0-15.778-6.674-30.123-17.559-40.781Zm-47.158-18.775c-5.57 0-10.977.647-16.135 1.864v1.865a67.912 67.912 0 0 1 16.135-1.931c4.107 0 8.123.366 12.008 1.061a77.767 77.767 0 0 1-2.749-2.254 70.435 70.435 0 0 0-9.259-.611v.006Z" class="Vector"/>
      <path fill="#CCE2FF" d="M562.789 127.749a78.057 78.057 0 0 0 2.749 2.254c12.132 2.164 23.024 7.542 31.572 15.137 1.181.282 2.376.539 3.578.773-9.808-9.603-23.037-16.203-37.899-18.164ZM488.806 186.7v75.609c.64-1.043 1.286-2.074 1.959-3.1V186.7c0-26.766 19.785-49.269 46.63-55.821v-1.865c-27.935 6.594-48.589 29.925-48.589 57.692v-.006Z" class="Vector"/>
      <path fill="#CCE2FF" d="M488.806 262.309v57.686h1.959v-60.78a111.56 111.56 0 0 0-1.959 3.1v-.006Zm64.717-128.481c-5.602 0-11.016.743-16.128 2.116v1.888a59.904 59.904 0 0 1 16.128-2.2c30.651 0 55.498 22.863 55.498 51.068v133.288h1.959V186.7c0-29.2-25.728-52.872-57.457-52.872ZM496.06 186.7v65.064c.64-.833 1.293-1.66 1.959-2.475V186.7c0-23.043 16.586-42.508 39.369-48.868v-1.888c-23.88 6.414-41.328 26.712-41.328 50.756Z" class="Vector"/>
      <path fill="#CCE2FF" d="M496.06 251.764v68.224h1.959v-70.699c-.666.815-1.319 1.642-1.959 2.475Zm57.47-111.258c-5.648 0-11.075.869-16.142 2.452v1.9a51.935 51.935 0 0 1 16.142-2.554c26.642 0 48.243 19.872 48.243 44.39v14.279c.326 0 .646-.012.973-.012v119.021h.986V186.694c0-25.513-22.476-46.194-50.202-46.194v.006Z" class="Vector"/>
      <path fill="#CCE2FF" d="M601.772 200.979v119.009h.973V200.967c-.326 0-.646.012-.973.012ZM503.329 186.7v56.498c.646-.695 1.299-1.379 1.959-2.062V186.7c0-19.309 13.399-35.728 32.1-41.836v-1.9c-19.805 6.186-34.059 23.426-34.059 43.736Z" class="Vector"/>
      <path fill="#CCE2FF" d="M503.329 243.192v76.796h1.959V241.13c-.66.683-1.313 1.367-1.959 2.062Z" class="Vector"/>
      <path fill="#A2C8FE" d="M1142.39 258.292c-4.8 0-9.31 1.097-13.27 3.022-8.93 4.34-15.03 12.924-15.15 22.833 0 .102-.01.198-.01.3 0 14.447 12.73 26.154 28.43 26.154 15.69 0 28.43-11.707 28.43-26.154s-12.73-26.155-28.43-26.155Z" class="Vector"/>
      <g class="Group">
        <path fill="#A2C8FE" d="M1009.41 57.122c0 31.273 23.88 57.409 55.78 63.824V0h-55.78v57.122Zm66-57.122v122.294c1.65.108 3.32.162 5.01.162.43 0 .85-.006 1.28-.012V0h-6.29Zm-8.26 121.311c2.07.36 4.17.642 6.3.828V0h-6.3v121.311Zm16.51-6.863v7.936c1.41-.06 2.82-.156 4.21-.287.7-.066 1.4-.144 2.09-.234V0h-6.3v114.448ZM1091.92 0v121.599c33.74-5.059 59.5-31.999 59.5-64.477V0h-59.5Z" class="Vector"/>
      </g>
      <path fill="#6CA8FC" d="M930.512 228.955a34.238 34.238 0 0 0-1.959-2.41c-6.661-7.457-16.763-12.217-28.072-12.217-20.053 0-36.313 14.957-36.313 33.408s16.26 33.407 36.313 33.407c15.09 0 28.026-8.47 33.511-20.519.385-.851.731-1.72 1.045-2.607a30.963 30.963 0 0 0 1.756-10.281c0-6.966-2.318-13.428-6.281-18.781Z" class="Vector"/>
      <g class="Group">
        <path fill="#6CA8FC" d="M928.552 226.545a32.914 32.914 0 0 1 1.959 2.41V0h-1.959v226.545ZM1089.96 0v233.613c0 40.517-35.69 73.361-79.73 73.361-.54 0-1.08-.012-1.62-.018-9.973-.186-19.5-2.05-28.25-5.311-21.104-7.853-37.723-23.787-45.324-43.628a32.784 32.784 0 0 1-1.044 2.607c8.214 19.626 25.114 35.278 46.368 42.969 8.776 3.177 18.297 4.987 28.25 5.167.54.012 1.08.018 1.62.018 45.11 0 81.69-33.653 81.69-75.159V0h-1.96Z" class="Vector"/>
        <path fill="#6CA8FC" d="M980.36 294.409c8.659 3.555 18.205 5.611 28.25 5.809.53.012 1.08.018 1.62.018 40.55 0 73.43-30.248 73.43-67.564V0h-1.96v232.672c0 36.321-32 65.76-71.47 65.76-.54 0-1.09-.006-1.62-.018-10.071-.204-19.624-2.332-28.25-5.989-24.552-10.406-41.601-33.246-41.601-59.753V0H936.8v232.672c0 27.527 17.891 51.205 43.56 61.737Z" class="Vector"/>
        <path fill="#6CA8FC" d="M980.36 285.975c8.496 4.04 18.081 6.414 28.25 6.642.54.012 1.08.018 1.62.018 36 0 65.18-26.85 65.18-59.975V0h-1.96v232.666c0 32.124-28.3 58.171-63.22 58.171-.54 0-1.08-.006-1.62-.018-10.201-.24-19.8-2.698-28.25-6.876-19.844-9.813-33.341-29.092-33.341-51.277V0h-1.959v232.666c0 23.21 14.333 43.346 35.3 53.315v-.006Z" class="Vector"/>
        <path fill="#6CA8FC" d="M980.36 277.259c8.254 4.688 17.905 7.493 28.25 7.763.53.012 1.08.024 1.62.024 31.44 0 56.92-23.451 56.92-52.374V0h-1.96v232.672c0 27.928-24.61 50.57-54.96 50.57-.54 0-1.08-.024-1.62-.036-10.391-.276-20.048-3.202-28.217-8.075l-.033-.018c-15.097-9.016-25.094-24.65-25.094-42.441V0h-1.959v232.672c0 18.846 10.82 35.361 27.053 44.587Z" class="Vector"/>
      </g>
    </g>
  </g>
  <defs>
    <clipPath id="a" class="a">
      <path fill="#fff" d="M0 8a8 8 0 0 1 8-8h1204a8 8 0 0 1 8 8v304a8 8 0 0 1-8 8H8a8 8 0 0 1-8-8V8Z"/>
    </clipPath>
  </defs>
</svg>